<svg version="1" xmlns="http://www.w3.org/2000/svg" width="733.333" height="733.333" viewBox="0 0 550.000000 550.000000"><path d="M0 275v275h550V0H0v275zM289.5 94.9c8.9 4.4 14 9.7 18.3 19 4.8 10.2 5.1 15.5 1.8 25.5-1.5 4.3-2.5 8-2.3 8.3.2.2 4 1 8.3 1.8 46.1 8.8 92.3 33.2 123.5 65.2 34.1 35 55.7 77.9 64.9 129.3 1.3 7.3 2.3 28.7 1.3 29.3-1.2.8-318.9 1.3-398.3.7l-66.5-.5-.3-4.5c-.4-6.3 2.2-27.7 4.7-39.1 7.9-36.1 24.9-71.3 48.4-100.4 7.9-9.7 25.8-27.1 35.4-34.3 30.5-22.9 65.9-38.9 101.7-45.7 4.3-.8 8.1-1.6 8.3-1.8.2-.3-.8-3.8-2.2-8-3.4-10.1-3.2-14.5.8-23.8 4.3-9.7 7.6-14 13.9-18.1 8.3-5.3 14.1-6.9 23.5-6.5 6.7.3 9.2.9 14.8 3.6zm239 337.1v26.5h-512l-.3-25.5c-.1-14 0-26 .3-26.7.3-1.1 50.3-1.3 256.2-1.1l255.8.3V432z"/></svg>